HIERARCHY
ROOT Hip
{
	OFFSET 0 1.131 0.0052
	CHANNELS 6 Xposition Yposition Zposition Xrotation Yrotation Zrotation
	JOINT Abdomen
	{
		OFFSET 0 -0.047353 -0.05
		CHANNELS 3 Xrotation Zrotation Yrotation
		JOINT Chest
		{
			OFFSET 0 0.132153 0.007439
			CHANNELS 3 Xrotation Zrotation Yrotation
			JOINT Neck
			{
				OFFSET 0 0.3078 0.006161
				CHANNELS 3 Xrotation Zrotation Yrotation
				JOINT Head_comp
				{
					OFFSET 0 0.0884 0.013
					CHANNELS 3 Xrotation Yrotation Zrotation
					End Site
					{
						OFFSET -0 0.156 0.0624
					}
				}
			}
			JOINT Left_Collar
			{
				OFFSET 0.02282 0.250342 0.017193
				CHANNELS 2 Yrotation Zrotation
				JOINT Left_Shoulder
				{
					OFFSET 0.15421 0 0
					CHANNELS 3 Xrotation Yrotation Zrotation
					JOINT Left_Forearm
					{
						OFFSET 0.265212 0 0
						CHANNELS 2 Yrotation Xrotation
						JOINT Left_Hand
						{
							OFFSET 0.27571 0 0
							CHANNELS 2 Zrotation Yrotation
							JOINT L1ProxPhalanx
							{
								OFFSET 0.014142 0.001733 0.014142
								CHANNELS 3 Yrotation Zrotation Xrotation
								JOINT L1MidPhalanx
								{
									OFFSET 0.04 0 0
									CHANNELS 1 Zrotation
									JOINT L1DistPhalanx
									{
										OFFSET 0.035 0 0
										CHANNELS 1 Zrotation
										End Site
										{
											OFFSET 0.029 -0 -0
										}
									}
								}
							}
							JOINT L2ProxPhalanx
							{
								OFFSET 0.0821037 0.001578 0.0219996
								CHANNELS 2 Yrotation Zrotation
								JOINT L2MidPhalanx
								{
									OFFSET 0.04 0 0
									CHANNELS 1 Zrotation
									JOINT L2DistPhalanx
									{
										OFFSET 0.028 0 0
										CHANNELS 1 Zrotation
										End Site
										{
											OFFSET 0.02 -0 -0
										}
									}
								}
							}
							JOINT L3ProxPhalanx
							{
								OFFSET 0.083 0 0
								CHANNELS 2 Yrotation Zrotation
								JOINT L3MidPhalanx
								{
									OFFSET 0.053 0 0
									CHANNELS 1 Zrotation
									JOINT L3DistPhalanx
									{
										OFFSET 0.03 0 0
										CHANNELS 1 Zrotation
										End Site
										{
											OFFSET 0.023 -0 -0
										}
									}
								}
							}
							JOINT L4ProxPhalanx
							{
								OFFSET 0.077274 -0.000761 -0.0207055
								CHANNELS 2 Yrotation Zrotation
								JOINT L4MidPhalanx
								{
									OFFSET 0.05 0 0
									CHANNELS 1 Zrotation
									JOINT L4DistPhalanx
									{
										OFFSET 0.03 0 0
										CHANNELS 1 Zrotation
										End Site
										{
											OFFSET 0.023 -0 -0
										}
									}
								}
							}
							JOINT L5ProxPhalanx
							{
								OFFSET 0.0675499 -0.001644 -0.039
								CHANNELS 2 Yrotation Zrotation
								JOINT L5MidPhalanx
								{
									OFFSET 0.04 0 0
									CHANNELS 1 Zrotation
									JOINT L5DistPhalanx
									{
										OFFSET 0.021 0 0
										CHANNELS 1 Zrotation
										End Site
										{
											OFFSET 0.022 -0 -0
										}
									}
								}
							}
						}
					}
				}
			}
			JOINT Right_Collar
			{
				OFFSET -0.02282 0.250342 0.017193
				CHANNELS 2 Yrotation Zrotation
				JOINT Right_Shoulder
				{
					OFFSET -0.15421 0 0
					CHANNELS 3 Xrotation Yrotation Zrotation
					JOINT Right_Forearm
					{
						OFFSET -0.265212 0 0
						CHANNELS 2 Yrotation Xrotation
						JOINT Right_Hand
						{
							OFFSET -0.27571 3e-006 0
							CHANNELS 2 Zrotation Yrotation
							JOINT R1ProxPhalanx
							{
								OFFSET -0.014142 0.001733 0.014142
								CHANNELS 3 Yrotation Zrotation Xrotation
								JOINT R1MidPhalanx
								{
									OFFSET -0.04 0 0
									CHANNELS 1 Zrotation
									JOINT R1DistPhalanx
									{
										OFFSET -0.035 0 0
										CHANNELS 1 Zrotation
										End Site
										{
											OFFSET -0.029 -0 -0
										}
									}
								}
							}
							JOINT R2ProxPhalanx
							{
								OFFSET -0.0821037 0.001578 0.0219996
								CHANNELS 2 Yrotation Zrotation
								JOINT R2MidPhalanx
								{
									OFFSET -0.04 0 0
									CHANNELS 1 Zrotation
									JOINT R2DistPhalanx
									{
										OFFSET -0.028 0 0
										CHANNELS 1 Zrotation
										End Site
										{
											OFFSET -0.02 -0 -0
										}
									}
								}
							}
							JOINT R3ProxPhalanx
							{
								OFFSET -0.083 0 0
								CHANNELS 2 Yrotation Zrotation
								JOINT R3MidPhalanx
								{
									OFFSET -0.053 0 0
									CHANNELS 1 Zrotation
									JOINT R3DistPhalanx
									{
										OFFSET -0.03 0 0
										CHANNELS 1 Zrotation
										End Site
										{
											OFFSET -0.023 -0 -0
										}
									}
								}
							}
							JOINT R4ProxPhalanx
							{
								OFFSET -0.077274 -0.000761 -0.0207055
								CHANNELS 2 Yrotation Zrotation
								JOINT R4MidPhalanx
								{
									OFFSET -0.05 0 0
									CHANNELS 1 Zrotation
									JOINT R4DistPhalanx
									{
										OFFSET -0.03 0 0
										CHANNELS 1 Zrotation
										End Site
										{
											OFFSET -0.023 -0 -0
										}
									}
								}
							}
							JOINT R5ProxPhalanx
							{
								OFFSET -0.0675499 -0.001644 -0.039
								CHANNELS 2 Yrotation Zrotation
								JOINT R5MidPhalanx
								{
									OFFSET -0.04 0 0
									CHANNELS 1 Zrotation
									JOINT R5DistPhalanx
									{
										OFFSET -0.021 0 0
										CHANNELS 1 Zrotation
										End Site
										{
											OFFSET -0.022 -0 -0
										}
									}
								}
							}
						}
					}
				}
			}
		}
	}
	JOINT Left_Thigh
	{
		OFFSET 0.1118 -0.1612 -0.0442
		CHANNELS 3 Xrotation Zrotation Yrotation
		JOINT Left_Shin
		{
			OFFSET 0 -0.477856 0
			CHANNELS 1 Xrotation
			JOINT Left_Foot
			{
				OFFSET 0 -0.431952 0
				CHANNELS 2 Xrotation Zrotation
				JOINT Left_Toe
				{
					OFFSET 0 -0.0442 0.119
					CHANNELS 1 Xrotation
					End Site
					{
						OFFSET -0 -0 0.07
					}
				}
			}
		}
	}
	JOINT Right_Thigh
	{
		OFFSET -0.1118 -0.1612 -0.0442
		CHANNELS 3 Xrotation Zrotation Yrotation
		JOINT Right_Shin
		{
			OFFSET 0 -0.477856 0
			CHANNELS 1 Xrotation
			JOINT Right_Foot
			{
				OFFSET 0 -0.431952 0
				CHANNELS 2 Xrotation Zrotation
				JOINT Right_Toe
				{
					OFFSET 0 -0.0442 0.119
					CHANNELS 1 Xrotation
					End Site
					{
						OFFSET -0 -0 0.07
					}
				}
			}
		}
	}
}
MOTION
Frames: 12
Frame Time: 0.00997494
-0.0971697 -0.0601591 0.048485 8.15455e-013 5.32799e-008 -5.10971e-006 0 0 0 0 0 0 0 0 0 0 0 0 0 0 -0 0 -0 0 0 0 0 -40.5316 -43.5896 103.283 -7.10789 -4.81548 2.69559 -7.40342 -2.98992 -6.72733 5.89092 0.508958 -5.4973 -5.3917 11.1257 1.19015 -12.1062 -9.35422 19.4153 3.33565 -41.2194 -1.46018 0 0 -0 0 -0 0 0 0 0 37.9386 28.008 73.698 26.2405 28.4472 13.118 18.2167 29.0248 19.6359 0 22.4358 32.6146 28.1246 -8.63175 30.7051 32.2053 23.7634 -7.83088 26.7354 35.1526 30.0193 0.586006 -0.92139 -0.00942371 0.0240216 -0.609952 0.921444 0 0.597412 -0.921389 -0.00960713 0 -0.597335 0.921444 0 
-0.0971697 -0.0601591 0.048485 8.15455e-013 5.32799e-008 -5.10971e-006 0 0 0 0 0 0 0 0 0 0 0 0 0 0 -0 0 -0 0 0 0 0 -40.5316 -43.5896 103.283 -7.10789 -4.81548 2.69559 -7.40342 -2.98992 -6.72733 5.89092 0.508958 -5.4973 -5.3917 11.1257 1.19015 -12.1062 -9.35422 19.4153 3.33565 -41.2194 -1.46018 0 0 -0 0 -0 0 0 0 0 37.9386 28.008 73.698 26.2405 28.4472 13.118 18.2167 29.0248 19.6359 0 22.4358 32.6146 28.1246 -8.63175 30.7051 32.2053 23.7634 -7.83088 26.7354 35.1526 30.0193 0.586006 -0.92139 -0.00942371 0.0240216 -0.609952 0.921444 0 0.597412 -0.921389 -0.00960713 0 -0.597335 0.921444 0 
-0.101405 -0.0601476 0.0521784 4.08947e-013 7.40171e-008 -5.08351e-006 0 -0 0 0 -0 0 0 -0 0 -0.710424 0.291089 -9.09152e-006 8.23162 -30.8598 23.2471 -30.8149 -22.3508 -123.784 -7.15692 3.70273 -16.8196 -40.6388 -43.5107 103.135 -7.2477 -4.89159 2.67731 -7.51665 -3.17544 -6.76879 5.86219 0.34625 -5.67025 -5.4549 11.0788 1.02427 -12.246 -9.39756 19.3493 3.19929 -41.1832 -1.55311 -8.23162 30.8598 23.2471 30.8149 22.3508 123.784 -7.15692 -3.70273 16.8196 40.6388 43.5107 103.135 7.2477 4.89159 -2.67731 7.51665 3.17544 6.76879 -5.86219 -0.34625 5.67025 5.4549 -11.0788 -1.02427 12.246 9.39756 -19.3493 -3.19929 41.1832 1.55311 0.818651 -0.654622 -0.00937741 0.0239012 -0.842499 0.654694 0 0.829999 -0.65462 -0.0095074 2.40273e-006 -0.829948 0.654694 0 
-0.10135 -0.0601453 0.0520235 4.11024e-013 7.439e-008 -5.10912e-006 0 -0 0 0 -0 0 0 -0 0 -0.713153 0.291215 -7.53517e-011 8.27208 -31.015 23.4652 -30.8876 -21.9573 -124.404 -7.17761 3.72125 -16.9043 -40.5316 -43.5896 103.283 -7.10789 -4.81548 2.69559 -7.40342 -2.98992 -6.72733 5.89092 0.508958 -5.4973 -5.3917 11.1257 1.19015 -12.1062 -9.35422 19.4153 3.33565 -41.2194 -1.46018 -8.27208 31.015 23.4652 30.8876 21.9573 124.404 -7.17761 -3.72125 16.9043 40.5316 43.5896 103.283 7.10789 4.81548 -2.69559 7.40342 2.98992 6.72733 -5.89092 -0.508958 5.4973 5.3917 -11.1257 -1.19015 12.1062 9.35422 -19.4153 -3.33565 41.2194 1.46018 0.80884 -0.658114 -0.00929102 0.0240216 -0.832808 0.658184 0 0.820245 -0.658112 -0.00942203 2.41484e-006 -0.820193 0.658184 0 
-0.10135 -0.0601452 0.0520199 3.97379e-014 7.31379e-008 -5.10914e-006 0 -0 0 0 -0 0 0 -0 0 -0.713141 0.291202 -1.36045e-015 8.27208 -31.015 23.4652 -30.8876 -21.9574 -124.404 -7.17761 3.72125 -16.9043 -40.5316 -43.5896 103.283 -7.10789 -4.81548 2.69559 -7.40342 -2.98992 -6.72733 5.89092 0.508958 -5.4973 -5.3917 11.1257 1.19015 -12.1062 -9.35422 19.4153 3.33565 -41.2194 -1.46018 -8.27208 31.015 23.4652 30.8876 21.9574 124.404 -7.17761 -3.72125 16.9043 40.5316 43.5896 103.283 7.10789 4.81548 -2.69559 7.40342 2.98992 6.72733 -5.89092 -0.508958 5.4973 5.3917 -11.1257 -1.19015 12.1062 9.35422 -19.4153 -3.33565 41.2194 1.46018 0.808613 -0.658117 -0.00928846 0.0240216 -0.832581 0.658187 0 0.820019 -0.658115 -0.00941946 1.71183e-008 -0.819965 0.658187 0 
-0.10135 -0.0601452 0.0520199 -5.37583e-013 7.3127e-008 -5.10914e-006 0 -0 0 0 -0 0 0 -0 0 -0.713141 0.291202 3.88256e-019 8.27208 -31.015 23.4652 -30.8876 -21.9574 -124.404 -7.17761 3.72125 -16.9043 -40.5316 -43.5896 103.283 -7.10789 -4.81548 2.69559 -7.40342 -2.98992 -6.72733 5.89092 0.508958 -5.4973 -5.3917 11.1257 1.19015 -12.1062 -9.35422 19.4153 3.33565 -41.2194 -1.46018 -8.27208 31.015 23.4652 30.8876 21.9574 124.404 -7.17761 -3.72125 16.9043 40.5316 43.5896 103.283 7.10789 4.81548 -2.69559 7.40342 2.98992 6.72733 -5.89092 -0.508958 5.4973 5.3917 -11.1257 -1.19015 12.1062 9.35422 -19.4153 -3.33565 41.2194 1.46018 0.808611 -0.658117 -0.00928843 0.0240216 -0.83258 0.658187 0 0.820017 -0.658115 -0.00941945 2.79616e-006 -0.819963 0.658187 0 
-0.10135 -0.0601452 0.0520199 -2.61173e-013 7.31269e-008 -5.10914e-006 0 -0 0 0 -0 0 0 -0 0 -0.713141 0.291202 -7.76513e-019 8.27208 -31.015 23.4652 -30.8876 -21.9574 -124.404 -7.17761 3.72125 -16.9043 -40.5316 -43.5896 103.283 -7.10789 -4.81548 2.69559 -7.40342 -2.98992 -6.72733 5.89092 0.508958 -5.4973 -5.3917 11.1257 1.19015 -12.1062 -9.35422 19.4153 3.33565 -41.2194 -1.46018 -8.27208 31.015 23.4652 30.8876 21.9574 124.404 -7.17761 -3.72125 16.9043 40.5316 43.5896 103.283 7.10789 4.81548 -2.69559 7.40342 2.98992 6.72733 -5.89092 -0.508958 5.4973 5.3917 -11.1257 -1.19015 12.1062 9.35422 -19.4153 -3.33565 41.2194 1.46018 0.808611 -0.658117 -0.00928843 0.0240216 -0.832579 0.658187 0 0.820015 -0.658115 -0.00941942 2.83165e-006 -0.819963 0.658187 0 
-0.10135 -0.0601452 0.0520199 3.62713e-013 7.31269e-008 -5.10914e-006 0 -0 0 0 -0 0 0 -0 0 -0.713141 0.291202 -0 8.27208 -31.015 23.4652 -30.8876 -21.9574 -124.404 -7.17761 3.72125 -16.9043 -40.5316 -43.5896 103.283 -7.10789 -4.81548 2.69559 -7.40342 -2.98992 -6.72733 5.89092 0.508958 -5.4973 -5.3917 11.1257 1.19015 -12.1062 -9.35422 19.4153 3.33565 -41.2194 -1.46018 -8.27208 31.015 23.4652 30.8876 21.9574 124.404 -7.17761 -3.72125 16.9043 40.5316 43.5896 103.283 7.10789 4.81548 -2.69559 7.40342 2.98992 6.72733 -5.89092 -0.508958 5.4973 5.3917 -11.1257 -1.19015 12.1062 9.35422 -19.4153 -3.33565 41.2194 1.46018 0.808611 -0.658117 -0.00928843 0.0240216 -0.832579 0.658187 0 0.820015 -0.658115 -0.00941942 5.99139e-008 -0.819962 0.658187 0 
-0.10135 -0.0601452 0.0520199 -1.00711e-012 7.31269e-008 -5.10914e-006 0 -0 0 0 -0 0 0 -0 0 -0.713141 0.291202 -3.88256e-019 8.27208 -31.015 23.4652 -30.8876 -21.9574 -124.404 -7.17761 3.72125 -16.9043 -40.5316 -43.5896 103.283 -7.10789 -4.81548 2.69559 -7.40342 -2.98992 -6.72733 5.89092 0.508958 -5.4973 -5.3917 11.1257 1.19015 -12.1062 -9.35422 19.4153 3.33565 -41.2194 -1.46018 -8.27208 31.015 23.4652 30.8876 21.9574 124.404 -7.17761 -3.72125 16.9043 40.5316 43.5896 103.283 7.10789 4.81548 -2.69559 7.40342 2.98992 6.72733 -5.89092 -0.508958 5.4973 5.3917 -11.1257 -1.19015 12.1062 9.35422 -19.4153 -3.33565 41.2194 1.46018 0.808611 -0.658117 -0.00928843 0.0240216 -0.832579 0.658187 0 0.820016 -0.658115 -0.00941944 0 -0.819962 0.658187 0 
-0.10135 -0.0601452 0.0520199 1.51156e-013 7.31269e-008 -5.10914e-006 0 -0 0 0 -0 0 0 -0 0 -0.713141 0.291202 -0 8.27208 -31.015 23.4652 -30.8876 -21.9574 -124.404 -7.17761 3.72125 -16.9043 -40.5316 -43.5896 103.283 -7.10789 -4.81548 2.69559 -7.40342 -2.98992 -6.72733 5.89092 0.508958 -5.4973 -5.3917 11.1257 1.19015 -12.1062 -9.35422 19.4153 3.33565 -41.2194 -1.46018 -8.27208 31.015 23.4652 30.8876 21.9574 124.404 -7.17761 -3.72125 16.9043 40.5316 43.5896 103.283 7.10789 4.81548 -2.69559 7.40342 2.98992 6.72733 -5.89092 -0.508958 5.4973 5.3917 -11.1257 -1.19015 12.1062 9.35422 -19.4153 -3.33565 41.2194 1.46018 0.808611 -0.658117 -0.00928843 0.0240216 -0.832579 0.658187 0 0.820016 -0.658115 -0.00941944 0 -0.819962 0.658187 0 
-0.10135 -0.0601452 0.0520199 1.00022e-012 7.31269e-008 -5.10914e-006 0 -0 0 0 -0 0 0 -0 0 -0.713141 0.291202 -0 8.27208 -31.015 23.4652 -30.8876 -21.9574 -124.404 -7.17761 3.72125 -16.9043 -40.5316 -43.5896 103.283 -7.10789 -4.81548 2.69559 -7.40342 -2.98992 -6.72733 5.89092 0.508958 -5.4973 -5.3917 11.1257 1.19015 -12.1062 -9.35422 19.4153 3.33565 -41.2194 -1.46018 -8.27208 31.015 23.4652 30.8876 21.9574 124.404 -7.17761 -3.72125 16.9043 40.5316 43.5896 103.283 7.10789 4.81548 -2.69559 7.40342 2.98992 6.72733 -5.89092 -0.508958 5.4973 5.3917 -11.1257 -1.19015 12.1062 9.35422 -19.4153 -3.33565 41.2194 1.46018 0.808611 -0.658117 -0.00928843 0.0240216 -0.832579 0.658187 0 0.820016 -0.658115 -0.00941944 0 -0.819962 0.658187 0 
-0.10135 -0.0601452 0.0520199 -5.7565e-013 7.31269e-008 -5.10914e-006 0 -0 0 0 -0 0 0 -0 0 -0.713141 0.291202 -0 8.27208 -31.015 23.4652 -30.8876 -21.9574 -124.404 -7.17761 3.72125 -16.9043 -40.5316 -43.5896 103.283 -7.10789 -4.81548 2.69559 -7.40342 -2.98992 -6.72733 5.89092 0.508958 -5.4973 -5.3917 11.1257 1.19015 -12.1062 -9.35422 19.4153 3.33565 -41.2194 -1.46018 -8.27208 31.015 23.4652 30.8876 21.9574 124.404 -7.17761 -3.72125 16.9043 40.5316 43.5896 103.283 7.10789 4.81548 -2.69559 7.40342 2.98992 6.72733 -5.89092 -0.508958 5.4973 5.3917 -11.1257 -1.19015 12.1062 9.35422 -19.4153 -3.33565 41.2194 1.46018 0.808611 -0.658117 -0.00928843 0.0240216 -0.832579 0.658187 0 0.820016 -0.658115 -0.00941944 3.32094e-006 -0.819964 0.658187 0 
